<svg xmlns="http://www.w3.org/2000/svg" version="1.1" xmlns:xlink="http://www.w3.org/1999/xlink" xmlns:svgjs="http://svgjs.dev/svgjs" width="1000" height="1000" viewBox="0 0 1000 1000"><rect width="1000" height="1000" fill="#ffffff"></rect><g transform="matrix(0.7,0,0,0.7,149.57575757575756,282.1265587044535)"><svg viewBox="0 0 396 247" data-background-color="#ca3433" preserveAspectRatio="xMidYMid meet" height="623" width="1000" xmlns="http://www.w3.org/2000/svg" xmlns:xlink="http://www.w3.org/1999/xlink"><g id="tight-bounds" transform="matrix(1,0,0,1,0.2400000000000091,-0.09999999999999432)"><svg viewBox="0 0 395.52 247.2" height="247.2" width="395.52"><g><svg></svg></g><g><svg viewBox="0 0 395.52 247.2" height="247.2" width="395.52"><g transform="matrix(1,0,0,1,142.2934661710037,47.215199999999996)"><svg viewBox="0 0 110.93306765799257 152.7696" height="152.7696" width="110.93306765799257"><g><svg viewBox="0 0 110.93306765799257 152.7696" height="152.7696" width="110.93306765799257"><g><svg viewBox="0 0 110.93306765799257 152.7696" height="152.7696" width="110.93306765799257"><g><svg viewBox="0 0 110.93306765799257 152.7696" height="152.7696" width="110.93306765799257"><g><svg viewBox="0 0 110.93306765799257 152.7696" height="152.7696" width="110.93306765799257"><g><svg viewBox="0 0 110.93306765799257 152.7696" height="152.7696" width="110.93306765799257"><g transform="matrix(1,0,0,1,0,0)"><svg width="110.93306765799257" viewBox="3.049999952316284 -36 29.299999237060547 40.349998474121094" height="152.7696" data-palette-color="#f7e1e1"><path d="M3.05 4.35L3.05 4.35Q3.35 2.6 3.73 0.75 4.1-1.1 4.73-3.35 5.35-5.6 6.23-8.58 7.1-11.55 8.45-15.55L8.45-15.55Q7.65-15.5 6.8-15.4 5.95-15.3 5.15-15.25L5.15-15.25Q5.2-16.6 6.35-17.38 7.5-18.15 9.35-18.5L9.35-18.5Q9.65-19.45 9.95-20.33 10.25-21.2 10.6-22.23 10.95-23.25 11.38-24.45 11.8-25.65 12.35-27.25 12.9-28.85 13.6-30.9L13.6-30.9Q13.75-31.35 14-32.15 14.25-32.95 14.25-33.65L14.25-33.65Q14.25-34.05 14.13-34.2 14-34.35 13.55-34.35L13.55-34.35Q12.45-34.35 11.35-33.4 10.25-32.45 9.38-31 8.5-29.55 8-28 7.5-26.45 7.5-25.2L7.5-25.2Q7.5-24.8 7.6-24.33 7.7-23.85 7.85-23.35L7.85-23.35Q6.05-23.35 5.3-24.2 4.55-25.05 4.55-26.35L4.55-26.35Q4.55-28.05 5.55-29.75 6.55-31.45 8.15-32.88 9.75-34.3 11.5-35.15 13.25-36 14.7-36L14.7-36Q16.15-36 16.65-35.23 17.15-34.45 17.15-33.5L17.15-33.5Q17.15-32.95 17.03-32.4 16.9-31.85 16.75-31.35L16.75-31.35 12.95-18.85Q13.6-18.9 14.3-18.93 15-18.95 15.7-18.95L15.7-18.95Q18.1-18.95 20.23-18.82 22.35-18.7 24.3-18.5L24.3-18.5Q25.4-22.05 26.33-25.03 27.25-28 28.03-30.13 28.8-32.25 29.3-33.35L29.3-33.35Q29.5-33.75 29.85-34.38 30.2-35 30.83-35.5 31.45-36 32.35-36L32.35-36Q31.65-34.2 30.75-31.33 29.85-28.45 28.9-25.05 27.95-21.65 27.1-18.3L27.1-18.3Q28-18.25 29.03-18.18 30.05-18.1 31.05-18.1L31.05-18.1Q29.8-16.85 28.7-16.57 27.6-16.3 26.6-16.3L26.6-16.3Q26.1-14.3 25.68-12.45 25.25-10.6 24.95-8.95L24.95-8.95Q24.15-5.05 23.83-2.25 23.5 0.55 23.5 2.25L23.5 2.25Q23.5 2.95 23.53 3.43 23.55 3.9 23.65 4.35L23.65 4.35Q21.5 4.15 20.68 3.23 19.85 2.3 19.85 0.2L19.85 0.2Q19.85-1.05 20.13-2.83 20.4-4.6 20.95-6.8L20.95-6.8Q21.35-8.4 22.05-10.85 22.75-13.3 23.65-16.25L23.65-16.25Q20.6-16.25 18.55-16.2 16.5-16.15 15-16.1 13.5-16.05 12-15.9L12-15.9Q11.4-13.9 10.73-11.78 10.05-9.65 9.4-7.53 8.75-5.4 8.08-3.23 7.4-1.05 6.75 1.1L6.75 1.1Q6.2 2.85 5.05 3.6 3.9 4.35 3.05 4.35Z" opacity="1" transform="matrix(1,0,0,1,0,0)" fill="#000000" class="undefined-text-0" data-fill-palette-color="primary" id="text-0"></path></svg></g></svg></g></svg></g></svg></g></svg></g></svg></g></svg></g><g><path d="M0 123.6c0-68.262 55.338-123.6 123.6-123.6 30.402 0 58.24 10.976 79.768 29.183l-11.147 0c-19.26-14.022-42.974-22.294-68.621-22.295-64.458 0-116.712 52.254-116.712 116.712 0 64.458 52.254 116.712 116.712 116.712 25.647 0 49.361-8.272 68.621-22.295l11.147 0c-21.528 18.206-49.366 29.183-79.768 29.183-68.262 0-123.6-55.338-123.6-123.6z" fill="#f7e1e1" stroke="transparent" data-fill-palette-color="tertiary"></path></g></svg></g><defs></defs></svg><rect width="395.52" height="247.2" fill="none" stroke="none" visibility="hidden"></rect></g></svg></g></svg>